<svg width="60" height="36" viewBox="0 0 60 36" fill="none" xmlns="http://www.w3.org/2000/svg">
<path d="M16.012 13.4886C15.9563 14.087 16.0677 14.7411 16.3382 15.2876C16.5014 15.7224 16.7719 16.3247 16.9351 16.7594C16.9908 16.8153 17.0425 16.923 17.0425 16.9788C17.0425 17.0347 17.0982 17.1424 17.0425 17.1982C17.0425 17.4694 16.8794 17.633 16.6088 17.7965L15.248 18.6701H14.8143C14.7069 18.6701 14.5955 18.6701 14.4881 18.6142C14.3807 18.5584 14.2692 18.5065 14.2175 18.3948C13.947 18.1236 13.6724 17.8484 13.4576 17.5213C13.2387 17.1384 13.0239 16.7594 12.8607 16.3207C12.1525 17.1942 11.2294 17.9561 10.1989 18.4467C9.1684 18.9373 8.02647 19.2085 6.88455 19.2085C6.17632 19.2644 5.41636 19.1527 4.71211 18.8815C4.00786 18.6102 3.40706 18.2273 2.86594 17.6808C2.37654 17.1344 1.94285 16.5361 1.72401 15.8301C1.45345 15.1201 1.34205 14.414 1.39775 13.704C1.39775 12.9422 1.50518 12.1245 1.83144 11.4145C2.15771 10.7045 2.5914 10.0503 3.1922 9.50785C4.60468 8.41891 6.34343 7.87245 8.13788 7.87245C8.79041 7.87245 9.49864 7.92829 10.1472 8.03599L12.3753 8.47077V6.99891C12.431 6.40059 12.431 5.79829 12.2679 5.25582C12.1048 4.71334 11.8342 4.16688 11.4522 3.72811C11.0185 3.34519 10.4735 3.07395 9.87663 2.96626C9.33153 2.80272 8.7347 2.74687 8.13788 2.85856C7.37792 2.9144 6.61399 2.96626 5.90974 3.1298C5.14978 3.29334 4.38585 3.56457 3.6816 3.89165C3.41104 4.05519 3.2479 4.05519 2.92164 4.21873H2.65108C2.38052 4.21873 2.21739 4.05519 2.21739 3.62041V2.53148C2.21739 2.26024 2.27309 1.98502 2.38052 1.76962C2.54365 1.60608 2.76249 1.44254 2.97734 1.33485C3.7373 0.900071 4.60866 0.572991 5.47605 0.461305C6.51054 0.190068 7.54106 0.0265297 8.62728 0.0265297C10.5292 -0.13701 12.3793 0.461306 13.8435 1.66193C14.4403 2.31609 14.878 3.13378 15.1486 3.95148C15.4191 4.82503 15.5305 5.69458 15.4748 6.56812L16.0199 13.4886H16.012ZM7.85936 16.4842C8.51189 16.4284 9.22012 16.3765 9.86867 16.213C10.6286 15.8859 11.2812 15.4511 11.878 14.8488C12.2599 14.4659 12.4748 13.9753 12.6379 13.4847C12.7454 12.8863 12.8011 12.284 12.8011 11.6857V10.7603C11.5517 10.4891 10.3024 10.3255 9.04903 10.3255C8.01454 10.2179 6.92832 10.4891 6.06093 11.0874C5.46411 11.6857 5.13785 12.4516 5.08214 13.2653C5.02644 14.079 5.30098 14.9007 5.79037 15.5548C6.00921 15.8819 6.33547 16.1531 6.71346 16.3167C7.09543 16.4802 7.47342 16.5361 7.91109 16.4244H7.85538V16.4802L7.85936 16.4842ZM24.1129 18.7738C23.8423 18.7738 23.516 18.7738 23.3529 18.6102C23.1898 18.3909 23.0266 18.1196 22.9192 17.8484L18.1367 2.15653C18.0292 1.93715 17.9735 1.66592 17.9735 1.39468C17.9735 1.12344 18.1367 0.959902 18.2441 0.959902H20.2534C20.524 0.959902 20.8502 0.959903 21.0134 1.12344C21.2322 1.34283 21.3396 1.61406 21.447 1.8853L24.8728 15.1799L28.024 1.8853C28.024 1.72176 28.0797 1.61406 28.1315 1.45052C28.1872 1.34283 28.2946 1.23114 28.4577 1.12344C28.6766 1.01575 28.9471 0.959902 29.2177 0.959902H30.849C31.1196 0.904059 31.3941 0.959903 31.609 1.12344C31.7721 1.34283 31.9352 1.61406 32.0427 1.8853L35.1939 15.507L38.6197 1.8853C38.6197 1.72176 38.6754 1.55822 38.7271 1.45052C38.7828 1.34283 38.8902 1.23114 39.0533 1.12344C39.2722 1.01575 39.5427 0.959902 39.8133 0.959902H41.8226C42.0932 0.959902 42.2563 1.12344 42.2563 1.28698V1.72176C42.2563 1.8853 42.0932 1.99299 42.0932 2.15653L37.3106 17.6848C37.3106 17.8484 37.2549 18.0119 37.2032 18.1196C37.1475 18.2273 36.9844 18.339 36.8769 18.4467C36.7138 18.7179 36.4432 18.7179 36.117 18.7179H34.3225C34.052 18.7179 33.7257 18.7179 33.5626 18.5544C33.3994 18.3909 33.292 18.1196 33.1289 17.7925L29.9776 4.76918L26.8781 17.7925C26.8781 17.9561 26.8224 18.1196 26.7707 18.2273C26.715 18.335 26.5519 18.4467 26.4445 18.5544C26.2813 18.6621 26.0625 18.7179 25.8476 18.7179H24.1089V18.7738H24.1129ZM49.9314 19.3721C48.897 19.3721 47.8664 19.2644 46.8319 19.1009C46.0163 18.9373 45.2006 18.6661 44.4407 18.339C44.2218 18.2313 44.007 18.0678 43.8956 17.9042C43.7881 17.6848 43.6767 17.4136 43.7324 17.1942V16.1571C43.7324 15.7224 43.8956 15.5588 44.1661 15.5588H44.4367C44.5998 15.5588 44.7072 15.7224 44.8704 15.7224C45.5786 16.0494 46.3386 16.2688 47.0985 16.4842C47.8585 16.6478 48.6741 16.7555 49.4898 16.7555C50.5243 16.8113 51.5548 16.5361 52.4779 15.9936C52.8042 15.7742 53.0747 15.4471 53.2379 15.1201C53.401 14.793 53.5084 14.4101 53.5084 13.9753C53.5641 13.704 53.5084 13.4288 53.401 13.2134C53.2936 12.998 53.1304 12.7786 52.9116 12.6151C52.3148 12.1245 51.6622 11.7416 50.9023 11.578L47.9142 10.7045C46.6648 10.3774 45.5229 9.6674 44.6515 8.69015C43.999 7.81661 43.6171 6.78352 43.6171 5.69458C43.6171 4.87688 43.8359 4.11503 44.2139 3.46087C45.0295 2.15255 46.3346 1.22715 47.8028 0.792374C48.6184 0.521137 49.4858 0.409452 50.3015 0.465294C50.7352 0.465294 51.2246 0.521136 51.6622 0.628833C52.0959 0.684676 52.5853 0.73653 53.023 0.900069C53.4607 1.06361 53.7829 1.06361 54.2206 1.17131C54.6543 1.33485 54.8174 1.33485 55.092 1.44254C55.3108 1.55024 55.5257 1.71378 55.6888 1.87732C55.7962 2.0967 55.8519 2.36794 55.8519 2.63918V3.51272C55.8519 3.9475 55.6888 4.11104 55.4182 4.11104C55.1477 4.11104 54.8731 4.00334 54.6583 3.8398C53.4089 3.29334 52.0482 3.0221 50.6914 3.07794C49.7683 3.07794 48.8452 3.24148 48.0296 3.67626C47.7033 3.8398 47.4327 4.11103 47.2696 4.43811C47.1065 4.76519 47.0508 5.14812 47.1065 5.4752C47.1065 5.74643 47.1065 6.02166 47.2139 6.2929C47.3213 6.56413 47.4845 6.78351 47.7033 6.94705C48.3001 7.54537 49.1158 7.87245 49.9314 7.98414L52.7564 8.85768C53.954 9.2406 55.0403 9.89476 55.8559 10.872C56.4527 11.6897 56.779 12.7228 56.7273 13.704C56.7273 14.5217 56.5641 15.3913 56.1305 16.1013C55.8042 16.8113 55.2591 17.4655 54.6623 17.9002C53.954 18.3909 53.1941 18.7738 52.4341 19.1009C51.6185 19.3202 50.7511 19.3721 49.8797 19.3721H49.9354H49.9314Z" fill="#6E6E6E"/>
<path d="M53.7169 29.0949C46.5851 33.616 38.1796 36.0235 29.6105 35.9757C18.7551 35.9757 8.32812 32.2082 0.238154 25.331C-0.3461 24.7796 0.238154 24.0739 0.982104 24.526C9.86666 29.4477 20.0327 32.0097 30.3545 31.9582C38.0705 31.9068 45.7321 30.5026 52.8638 27.6907C53.822 27.2901 54.7802 28.3928 53.7169 29.0985V29.0949ZM54.7296 33.2631C54.4647 33.8144 55.049 34.0681 55.6332 33.6637C59.1465 30.9033 59.9956 25.1288 59.2517 24.2724C58.5077 23.4674 52.3887 22.7653 48.7156 25.228C48.1314 25.6287 48.2911 26.1837 48.8753 26.033C50.8423 25.7831 55.6332 25.228 56.4862 26.3344C57.3392 27.4886 55.4735 31.4546 54.7296 33.2631Z" fill="#F49819"/>
</svg>
