<svg width="324" height="69" viewBox="0 0 324 69" fill="none" xmlns="http://www.w3.org/2000/svg">
<g clip-path="url(#clip0_6987_101)">
<g clip-path="url(#clip1_6987_101)">
<path d="M218.599 8.91081C221.006 8.91081 222.957 6.93739 222.957 4.50304C222.957 2.0687 221.006 0.0952759 218.599 0.0952759C216.193 0.0952759 214.242 2.0687 214.242 4.50304C214.242 6.93739 216.193 8.91081 218.599 8.91081Z" fill="#FD1E4A"/>
<path d="M208.321 60.248C203.606 60.248 199.776 57.0279 199.613 52.3026V11.4005H183.445V18.3805H190.891V49.5525V52.5185C191.136 62.039 198.847 69 208.321 69H214.135V60.248H208.321Z" fill="#FD1E4A"/>
<path d="M222.957 11.4005H214.236V51.3372H222.957V11.4005Z" fill="#FD1E4A"/>
<path d="M267.19 11.4005L253.653 51.3816H250.822L237.279 11.4005H228.03L244.593 60.1972H247.714H251.632H252.843H253.892H259.882L276.439 11.4005H267.19Z" fill="#FD1E4A"/>
<path d="M321.112 40.0065H323.611C323.849 38.6283 324 37.212 324 35.7639C324 22.2294 313.157 11.2607 299.777 11.2607C286.397 11.2607 275.553 22.2294 275.553 35.7639C275.553 49.2984 286.397 60.267 299.777 60.267C310.162 60.267 318.99 53.649 322.437 44.3635H312.73C309.961 48.6252 305.195 51.4451 299.777 51.4451C292.676 51.4451 286.698 46.6055 284.865 40.0129H321.112V40.0065ZM299.777 20.0826C306.765 20.0826 312.673 24.7635 314.607 31.1973H284.946C286.88 24.7635 292.789 20.0826 299.777 20.0826Z" fill="#FD1E4A"/>
<path d="M18.8863 8.91081C21.2929 8.91081 23.2438 6.93739 23.2438 4.50304C23.2438 2.0687 21.2929 0.0952759 18.8863 0.0952759C16.4798 0.0952759 14.5289 2.0687 14.5289 4.50304C14.5289 6.93739 16.4798 8.91081 18.8863 8.91081Z" fill="#131210"/>
<path d="M52.1572 11.4005C38.7836 11.4005 27.9402 22.3691 27.9402 35.8973C27.9402 49.4255 38.7836 60.3941 52.1572 60.3941C65.5308 60.3941 76.3742 49.4255 76.3742 35.8973C76.3742 22.3691 65.5308 11.4005 52.1572 11.4005ZM52.1572 51.5277C43.6244 51.5277 36.7116 44.5286 36.7116 35.9036C36.7116 27.2786 43.6307 20.2796 52.1572 20.2796C60.6837 20.2796 67.6028 27.2786 67.6028 35.9036C67.6028 44.5286 60.6837 51.5277 52.1572 51.5277Z" fill="#131210"/>
<path d="M157.501 11.4005C151.606 11.4005 146.2 13.5345 141.999 17.0785V0H133.278V35.0843H133.297C133.291 35.3574 133.278 35.6242 133.278 35.8973C133.278 49.4254 144.121 60.3941 157.495 60.3941C170.869 60.3941 181.712 49.4254 181.712 35.8973C181.712 22.3691 170.869 11.4005 157.495 11.4005H157.501ZM157.501 51.5277C148.969 51.5277 142.056 44.5286 142.056 35.9036C142.056 27.2786 148.975 20.2795 157.501 20.2795C166.028 20.2795 172.947 27.2786 172.947 35.9036C172.947 44.5286 166.028 51.5277 157.501 51.5277Z" fill="#131210"/>
<path d="M104.76 11.4005C98.8645 11.4005 93.4585 13.5345 89.2581 17.0785V0H80.537V35.0843H80.5558C80.5495 35.3574 80.537 35.6242 80.537 35.8973C80.537 49.4254 91.3803 60.3941 104.754 60.3941C118.128 60.3941 128.971 49.4254 128.971 35.8973C128.971 22.3691 118.128 11.4005 104.754 11.4005H104.76ZM104.76 51.5277C96.2274 51.5277 89.3146 44.5286 89.3146 35.9036C89.3146 27.2786 96.2337 20.2795 104.76 20.2795C113.287 20.2795 120.206 27.2786 120.206 35.9036C120.206 44.5286 113.287 51.5277 104.76 51.5277Z" fill="#131210"/>
<path d="M5.87687 11.4005V18.3805H14.5226V52.3026C14.3594 57.0279 10.5294 60.248 5.81408 60.248H0V69H5.81408C15.2824 69 22.9926 62.039 23.2438 52.5185C23.2438 52.5185 23.2438 49.5842 23.2438 49.5525V11.4005H5.87687Z" fill="#131210"/>
</g>
</g>
<defs>
<clipPath id="clip0_6987_101">
<rect width="324" height="69" fill="white"/>
</clipPath>
<clipPath id="clip1_6987_101">
<rect width="324" height="69" fill="white"/>
</clipPath>
</defs>
</svg>
