<svg width="121" height="35" viewBox="0 0 121 35" fill="none" xmlns="http://www.w3.org/2000/svg">
<rect x="1" y="1" width="119" height="33" rx="7" stroke="#3A4F93" stroke-width="2"/>
<path d="M26.6667 14.5H24V12.5C24 11.4391 23.5786 10.4217 22.8284 9.67157C22.0783 8.92143 21.0609 8.5 20 8.5C18.9391 8.5 17.9217 8.92143 17.1716 9.67157C16.4214 10.4217 16 11.4391 16 12.5V14.5H13.3333C12.9797 14.5 12.6406 14.6405 12.3905 14.8905C12.1405 15.1406 12 15.4797 12 15.8333V25.1667C12 25.5203 12.1405 25.8594 12.3905 26.1095C12.6406 26.3595 12.9797 26.5 13.3333 26.5H26.6667C27.0203 26.5 27.3594 26.3595 27.6095 26.1095C27.8595 25.8594 28 25.5203 28 25.1667V15.8333C28 15.4797 27.8595 15.1406 27.6095 14.8905C27.3594 14.6405 27.0203 14.5 26.6667 14.5ZM20 21.5C19.8022 21.5 19.6089 21.4414 19.4444 21.3315C19.28 21.2216 19.1518 21.0654 19.0761 20.8827C19.0004 20.7 18.9806 20.4989 19.0192 20.3049C19.0578 20.1109 19.153 19.9327 19.2929 19.7929C19.4327 19.653 19.6109 19.5578 19.8049 19.5192C19.9989 19.4806 20.2 19.5004 20.3827 19.5761C20.5654 19.6518 20.7216 19.78 20.8315 19.9444C20.9414 20.1089 21 20.3022 21 20.5C21 20.7652 20.8946 21.0196 20.7071 21.2071C20.5196 21.3946 20.2652 21.5 20 21.5ZM22.6667 14.5H17.3333V12.5C17.3333 11.7928 17.6143 11.1145 18.1144 10.6144C18.6145 10.1143 19.2928 9.83333 20 9.83333C20.7072 9.83333 21.3855 10.1143 21.8856 10.6144C22.3857 11.1145 22.6667 11.7928 22.6667 12.5V14.5Z" fill="#3A4F93"/>
<g clip-path="url(#clip0_6612_63)">
<path d="M53.8111 26.9998H44.8958C41.6447 26.9998 39 24.4422 39 21.2981V8.02637H42.3516V21.2966C42.3516 22.6535 43.4927 23.7571 44.8958 23.7571H53.8111V26.9984V26.9998Z" fill="#3A4F93"/>
<path d="M66.3826 27H62.5343C58.194 27 54.6626 23.5848 54.6626 19.3873V16.0915C54.6626 11.6303 58.4164 8 63.031 8H71.2348V11.2413H63.031C60.2644 11.2413 58.0142 13.4174 58.0142 16.093V19.3888C58.0142 21.7992 60.0419 23.7602 62.5343 23.7602H66.3826C67.7857 23.7602 68.9268 22.6566 68.9268 21.2997V20.7649C68.9268 19.7026 68.0325 18.8393 66.9356 18.8393H62.6592V15.5979H66.9356C69.882 15.5979 72.2784 17.9155 72.2784 20.7649V21.2997C72.2784 24.4438 69.6337 27.0015 66.3826 27.0015V27Z" fill="#3A4F93"/>
<path d="M77.6061 27H74.2545V19.0985C74.2545 17.6517 75.4717 16.4745 76.9693 16.4745H83.9209C85.4108 16.4745 86.6235 15.3018 86.6235 13.8609C86.6235 12.4199 85.4108 11.2472 83.9209 11.2472H74.125V8.00586H83.9209C87.2588 8.00586 89.9751 10.6328 89.9751 13.8609C89.9751 17.0889 87.2588 19.7158 83.9209 19.7158H77.6076V27H77.6061Z" fill="#3A4F93"/>
<path d="M101.333 26.9999H93.6483C92.6489 26.9999 91.8369 26.2146 91.8369 25.2481V9.77676C91.8369 8.85151 92.6139 8.10011 93.5706 8.10011C94.0292 8.10011 96.4073 8.10011 99.0596 8.09717H101.33C101.33 8.09717 101.333 8.09717 101.334 8.09717C103.382 8.09717 105.306 8.86772 106.755 10.2674C108.203 11.6685 109.002 13.5308 109.002 15.5124V19.5847C109.002 23.6732 105.562 26.9999 101.334 26.9999H101.333ZM95.1885 23.7586H101.333C103.712 23.7586 105.649 21.886 105.649 19.5847V15.5124C105.649 14.3971 105.199 13.3481 104.384 12.5599C103.569 11.7716 102.486 11.3385 101.333 11.3385H99.0596C97.5926 11.34 96.2092 11.3414 95.187 11.3414V23.7601L95.1885 23.7586Z" fill="#3A4F93"/>
</g>
<defs>
<clipPath id="clip0_6612_63">
<rect width="70" height="19" fill="white" transform="translate(39 8)"/>
</clipPath>
</defs>
</svg>
